# xmcd CD database file
# Generated: Sat Jul 20 20:15:08 2002 by KSCD
# 
# Track frame offsets:
#       183
#       25715
#       42333
#       54433
#       73153
#       91820
#       110033
#       124268
#       137153
#       157403
#       166215
#
# Disc length: 2484 seconds
#
# Revision: 1
# Processed by: cddbd v1.4PL0 Copyright (c) Steve Scherf et al.
# Submitted via: Kscd 1.3.3
#
DISCID=9b09b20b
DTITLE=Wolfgang Ambros - Der letzte Tanz
DYEAR=1900
DGENRE=
TTITLE0=Der letzte Tanz
TTITLE1=Polizist
TTITLE2=Modern
TTITLE3=Überlebensfrage
TTITLE4=Von Liebe ka Spur
TTITLE5=Hand in Hand
TTITLE6=Sei ned bled
TTITLE7=Mein zweites Leb'n
TTITLE8=So is es
TTITLE9=Inselwitz
TTITLE10=Du bist ma des wert
EXTD=
EXTT0=
EXTT1=
EXTT2=
EXTT3=
EXTT4=
EXTT5=
EXTT6=
EXTT7=
EXTT8=
EXTT9=
EXTT10=
PLAYORDER=
